<svg width="203" height="240" viewBox="0 0 203 240" fill="none" xmlns="http://www.w3.org/2000/svg">
<path fill-rule="evenodd" clip-rule="evenodd" d="M89.1115 24.6351C91.7897 18.6456 97.7931 14.5057 104.757 14.5057C111.74 14.5057 117.689 18.6965 120.387 24.6327C126.869 25.35 132.665 29.7315 134.821 36.3813C136.972 43.0169 134.903 49.9928 130.063 54.4054C131.399 60.8333 128.991 67.7179 123.345 71.8034C117.714 75.8775 110.451 76.0665 104.761 72.8293C99.0916 76.0701 91.7934 75.8732 86.1687 71.8034L86.157 71.7949C80.5299 67.6776 78.1127 60.7994 79.4502 54.3965C74.6519 49.9914 72.5386 43.0252 74.6922 36.3813L74.6939 36.3761C76.8465 29.781 82.6289 25.3637 89.1115 24.6351ZM104.757 19.9189C99.5333 19.9189 95.1018 23.3178 93.5906 28.0574C93.2327 29.1798 92.1899 29.9419 91.0118 29.9419C86.0617 29.9419 81.4561 33.1085 79.841 38.053C78.2282 43.0321 80.1123 48.3 84.111 51.23C85.0562 51.9226 85.4483 53.1446 85.0827 54.2579C83.5387 58.9584 85.1157 64.3215 89.3478 67.422C93.5826 70.4823 99.1856 70.3372 103.157 67.4274C104.106 66.7319 105.396 66.7293 106.347 67.4208C110.371 70.3437 115.94 70.4795 120.171 67.4178C124.388 64.3667 125.98 59.0096 124.429 54.2523C124.065 53.1365 124.462 51.9133 125.411 51.2235C129.433 48.3015 131.289 43.042 129.671 38.0504C128.059 33.0751 123.461 29.9419 118.501 29.9419C117.332 29.9419 116.295 29.1909 115.93 28.0799C114.374 23.342 109.959 19.9189 104.757 19.9189Z" fill="#666666"/>
<path fill-rule="evenodd" clip-rule="evenodd" d="M40.0955 83.2924C42.7736 77.3029 48.777 73.163 55.7405 73.163C62.7239 73.163 68.6728 77.3538 71.3709 83.2899C77.8531 84.0072 83.6494 88.3887 85.8049 95.0386C87.9558 101.674 85.8871 108.65 81.0466 113.063C82.3827 119.491 79.9747 126.375 74.3285 130.461C68.6978 134.535 61.4351 134.724 55.7452 131.487C50.0755 134.727 42.7773 134.53 37.1526 130.461L37.141 130.452C31.5136 126.335 29.0964 119.456 30.4343 113.053C25.6357 108.642 23.5209 101.642 25.6779 95.0333C27.8305 88.4383 33.6128 84.021 40.0955 83.2924ZM55.7405 78.5762C50.5172 78.5762 46.0857 81.9751 44.5745 86.7147C44.2166 87.8371 43.1738 88.5991 41.9957 88.5991C37.0448 88.5991 32.4384 91.7669 30.824 96.7129C29.2134 101.647 31.0955 106.957 35.0949 109.887C36.0401 110.58 36.4323 111.802 36.0666 112.915C34.5226 117.616 36.0996 122.979 40.3317 126.079C44.5665 129.14 50.1695 128.995 54.1407 126.085C55.0898 125.389 56.3795 125.387 57.3314 126.078C61.3547 129.001 66.9237 129.137 71.1551 126.075C75.3719 123.024 76.964 117.667 75.4126 112.91C75.0488 111.794 75.4455 110.571 76.3951 109.881C80.4172 106.959 82.2733 101.699 80.6553 96.7077C79.0426 91.7324 74.4454 88.5991 69.4853 88.5991C68.3159 88.5991 67.2788 87.8481 66.9138 86.7371C65.3576 81.9993 60.9426 78.5762 55.7405 78.5762Z" fill="#666666"/>
<path fill-rule="evenodd" clip-rule="evenodd" d="M131.699 85.0686C134.378 79.0791 140.381 74.9392 147.344 74.9392C154.328 74.9392 160.277 79.13 162.975 85.0662C169.457 85.7834 175.253 90.1649 177.409 96.8148C179.56 103.45 177.491 110.426 172.65 114.839C173.987 121.267 171.579 128.151 165.932 132.237C160.302 136.311 153.039 136.5 147.349 133.263C141.679 136.504 134.381 136.307 128.757 132.237L128.745 132.228C123.118 128.111 120.701 121.233 122.038 114.83C117.24 110.425 115.127 103.459 117.28 96.8148L117.282 96.8095C119.434 90.2145 125.217 85.7972 131.699 85.0686ZM147.344 80.3524C142.121 80.3524 137.69 83.7513 136.178 88.4909C135.821 89.6133 134.778 90.3753 133.6 90.3753C128.65 90.3753 124.044 93.5419 122.429 98.4865C120.816 103.466 122.7 108.733 126.699 111.663C127.644 112.356 128.036 113.578 127.671 114.691C126.127 119.392 127.704 124.755 131.936 127.855C136.17 130.916 141.773 130.771 145.745 127.861C146.694 127.165 147.983 127.163 148.935 127.854C152.959 130.777 158.528 130.913 162.759 127.851C166.976 124.8 168.568 119.443 167.017 114.686C166.653 113.57 167.049 112.347 167.999 111.657C172.021 108.735 173.877 103.475 172.259 98.4839C170.647 93.5086 166.049 90.3753 161.089 90.3753C159.92 90.3753 158.883 89.6243 158.518 88.5134C156.962 83.7755 152.547 80.3524 147.344 80.3524Z" fill="#666666"/>
<path fill-rule="evenodd" clip-rule="evenodd" d="M103.985 78.9534C105.225 79.7886 105.553 81.4706 104.717 82.7104C100.739 88.6161 96.1194 97.6097 97.0899 108.013L97.0899 108.013C97.8009 115.642 101.201 120.888 105.202 126.514C105.48 126.905 105.761 127.299 106.045 127.695C109.803 132.947 113.95 138.743 115.731 146.844L115.733 146.85C117.683 155.81 117.138 169.166 104.706 187.313C103.861 188.546 102.176 188.861 100.943 188.016C99.7097 187.171 99.3948 185.487 100.24 184.254C111.912 167.217 112.046 155.368 110.444 148.004C108.908 141.025 105.372 136.07 101.55 130.717C101.298 130.364 101.044 130.009 100.79 129.651C96.7238 123.933 92.5537 117.677 91.6999 108.516C90.5558 96.2511 96.0014 85.9601 100.228 79.6861C101.063 78.4463 102.745 78.1183 103.985 78.9534Z" fill="#666666"/>
<path fill-rule="evenodd" clip-rule="evenodd" d="M74.1634 135.722C74.9514 134.452 76.62 134.061 77.8903 134.849C82.7078 137.838 88.0756 142.289 92.1956 148.764L92.1959 148.764C103.26 166.157 95.8665 183.54 94.8106 186.004C94.2217 187.378 92.6305 188.014 91.2566 187.425C89.8826 186.836 89.2461 185.245 89.8349 183.871C90.809 181.598 97.1178 166.587 87.6284 151.669C84.0514 146.049 79.3539 142.127 75.0365 139.449C73.7663 138.661 73.3753 136.992 74.1634 135.722Z" fill="#666666"/>
<path fill-rule="evenodd" clip-rule="evenodd" d="M51.2153 103.443C51.2153 100.967 53.2224 98.9604 55.6982 98.9604C58.1741 98.9604 60.1812 100.967 60.1812 103.443C60.1812 105.919 58.1741 107.926 55.6982 107.926C53.2224 107.926 51.2153 105.919 51.2153 103.443Z" fill="#666666"/>
<path fill-rule="evenodd" clip-rule="evenodd" d="M100.231 44.7859C100.231 42.3101 102.239 40.3031 104.714 40.3031C107.19 40.3031 109.197 42.3101 109.197 44.7859C109.197 47.2617 107.19 49.2687 104.714 49.2687C102.239 49.2687 100.231 47.2617 100.231 44.7859Z" fill="#666666"/>
<path fill-rule="evenodd" clip-rule="evenodd" d="M142.819 105.177C142.819 102.701 144.826 100.694 147.302 100.694C149.778 100.694 151.785 102.701 151.785 105.177C151.785 107.653 149.778 109.66 147.302 109.66C144.826 109.66 142.819 107.653 142.819 105.177Z" fill="#666666"/>
<path d="M11.3765 195.13C15.0559 195.13 18.9044 196.314 18.9044 200.67C18.9044 203.038 17.4665 204.983 15.1404 205.575C18.0586 206.083 19.8771 208.789 19.8771 211.665C19.8771 216.529 15.944 218.009 11.7571 218.009H1.09961V216.444H2.07232C3.63711 216.444 3.84857 215.81 3.84857 214.456V198.64C3.84857 197.244 3.59482 196.694 2.07232 196.694H1.09961V195.13H11.3765ZM7.44336 204.687H10.8267C13.195 204.687 15.225 203.503 15.225 200.881C15.225 198.259 12.9413 197.413 10.6575 197.413H7.40107V204.687H7.44336ZM7.44336 215.767H10.9113C13.6179 215.767 16.1132 214.837 16.1132 211.707C16.1132 208.578 13.7871 206.971 10.869 206.971H7.44336V215.767Z" fill="#666666"/>
<path d="M30.704 201.389C35.6944 201.389 38.824 205.068 38.824 209.931C38.824 214.795 35.6944 218.474 30.704 218.474C25.7136 218.474 22.584 214.752 22.584 209.931C22.584 205.11 25.7136 201.389 30.704 201.389ZM30.704 216.19C34.2565 216.19 35.3138 212.976 35.3138 209.974C35.3138 206.971 34.2142 203.63 30.6194 203.63C27.0246 203.63 26.0096 206.844 26.0096 209.847C26.0096 212.849 27.0669 216.148 30.704 216.148V216.19Z" fill="#666666"/>
<path d="M46.3518 201.389V213.188C46.3518 214.837 47.1131 216.063 48.9316 216.063C50.0735 216.063 51.3422 215.471 52.1035 214.668C52.6956 214.033 52.9916 213.315 53.1608 212.426V205.152C53.1608 204.476 53.0339 203.799 52.1881 203.799C51.8497 203.799 51.5537 203.841 51.2153 203.926L51.0885 202.361L56.3749 201.431V215.26C56.3749 216.148 56.5018 216.698 57.5168 216.698C57.6437 216.698 57.7706 216.698 57.8974 216.698V218.263L53.0762 218.559V216.486C51.7229 217.924 49.6929 218.559 47.7897 218.559C46.0135 218.559 44.3218 218.009 43.476 216.275C43.0953 215.471 43.0108 214.287 43.0108 213.441V205.195C43.0108 204.518 42.8839 203.841 42.0381 203.841C41.6997 203.841 41.4037 203.884 41.0654 203.968L40.9385 202.404L46.2249 201.473L46.3518 201.389Z" fill="#666666"/>
<path d="M75.5754 222.026C75.5754 223.422 75.8291 223.972 77.3516 223.972H77.6899V225.537H70.0352V223.972H70.5004C72.0652 223.972 72.2766 223.337 72.2766 222.026V216.359C71.0079 217.84 69.1893 218.432 67.3285 218.432C62.5072 218.432 60.5195 214.456 60.5195 210.185C60.5195 205.533 62.8879 201.346 68.0052 201.346C69.866 201.346 71.3462 201.896 72.6995 203.207L75.4908 201.346V221.984L75.5754 222.026ZM68.3435 203.63C64.8333 203.63 64.0297 206.929 64.0297 209.847C64.0297 212.553 64.791 216.063 68.132 216.063C70.162 216.063 71.7268 215.006 72.3189 213.103V206.167C71.5999 204.645 69.9929 203.672 68.3435 203.672V203.63Z" fill="#666666"/>
<path d="M84.8795 201.389V213.188C84.8795 214.837 85.6408 216.063 87.4593 216.063C88.6012 216.063 89.87 215.471 90.6312 214.668C91.2233 214.033 91.5193 213.315 91.6885 212.426V205.152C91.6885 204.476 91.5616 203.799 90.7158 203.799C90.3775 203.799 90.0814 203.841 89.7431 203.926L89.6162 202.361L94.9027 201.431V215.26C94.9027 216.148 95.0295 216.698 96.0445 216.698C96.1714 216.698 96.2983 216.698 96.4252 216.698V218.263L91.6462 218.559V216.486C90.2929 217.924 88.2629 218.559 86.3597 218.559C84.5835 218.559 82.8918 218.009 82.0883 216.275C81.7077 215.471 81.6231 214.287 81.6231 213.441V205.195C81.6231 204.518 81.4962 203.841 80.6504 203.841C80.312 203.841 80.016 203.884 79.6777 203.968L79.5508 202.404L84.8372 201.473L84.8795 201.389Z" fill="#666666"/>
<path d="M103.403 213.737C104.164 215.218 105.602 216.148 107.294 216.148C109.239 216.148 110.466 214.964 111.354 213.357L113.257 214.668C111.65 217.163 109.62 218.474 106.617 218.474C101.796 218.474 99.1738 214.795 99.1738 210.227C99.1738 205.66 101.923 201.389 106.786 201.389C109.07 201.389 111.312 202.615 112.369 204.73C113.172 206.294 113.426 207.986 113.426 209.762H102.642C102.642 211.115 102.811 212.511 103.445 213.737H103.403ZM106.617 203.672C104.333 203.672 102.811 205.322 102.642 207.478H109.831C109.831 205.448 108.859 203.672 106.617 203.672Z" fill="#666666"/>
<path d="M119.305 196.779H121.166V201.896H125.395V204.18H121.166V214.456C121.166 215.302 121.504 215.894 122.434 215.894C123.365 215.894 123.83 215.302 124.295 214.626L125.818 216.402C124.676 217.755 123.153 218.516 121.377 218.516C118.797 218.516 117.909 216.952 117.909 214.583V204.222H115.625V202.446C118.248 202.023 119.009 199.063 119.263 196.821L119.305 196.779Z" fill="#666666"/>
<path d="M142.523 203.503C143.918 202.065 145.991 201.389 148.021 201.389C149.839 201.389 151.489 201.981 152.334 203.715C152.757 204.518 152.8 205.618 152.8 206.506V214.499C152.8 215.852 153.096 216.486 154.576 216.486H154.956V218.051H147.555V216.486H147.809C149.289 216.486 149.543 215.852 149.543 214.499V206.717C149.543 205.026 148.697 204.053 146.963 204.053C145.821 204.053 144.426 204.603 143.58 205.406C142.946 205.998 142.65 206.717 142.48 207.605V214.499C142.48 215.852 142.734 216.486 144.257 216.486H144.51V218.051H137.109V216.486H137.448C138.97 216.486 139.266 215.894 139.266 214.499V205.195C139.266 204.476 139.139 203.799 138.251 203.799C137.913 203.799 137.575 203.841 137.321 203.926L137.194 202.361L142.48 201.431V203.503H142.523Z" fill="#666666"/>
<path d="M165.191 201.389C170.182 201.389 173.311 205.068 173.311 209.931C173.311 214.795 170.182 218.474 165.191 218.474C160.201 218.474 157.071 214.752 157.071 209.931C157.071 205.11 160.201 201.389 165.191 201.389ZM165.191 216.19C168.744 216.19 169.801 212.976 169.801 209.974C169.801 206.971 168.702 203.63 165.107 203.63C161.512 203.63 160.497 206.844 160.497 209.847C160.497 212.849 161.554 216.148 165.191 216.148V216.19Z" fill="#666666"/>
<path d="M179.105 196.779H180.966V201.896H185.195V204.18H180.966V214.456C180.966 215.302 181.304 215.894 182.235 215.894C183.165 215.894 183.63 215.302 184.096 214.626L185.618 216.402C184.476 217.755 182.954 218.516 181.177 218.516C178.598 218.516 177.71 216.952 177.71 214.583V204.222H175.426V202.446C178.048 202.023 178.809 199.063 179.063 196.821L179.105 196.779Z" fill="#666666"/>
<path d="M191.666 213.737C192.427 215.218 193.865 216.148 195.557 216.148C197.502 216.148 198.728 214.964 199.617 213.357L201.52 214.668C199.913 217.163 197.883 218.474 194.88 218.474C190.059 218.474 187.437 214.795 187.437 210.227C187.437 205.66 190.185 201.389 195.049 201.389C197.333 201.389 199.574 202.615 200.632 204.73C201.435 206.294 201.689 207.986 201.689 209.762H190.904C190.904 211.115 191.074 212.511 191.708 213.737H191.666ZM194.88 203.672C192.596 203.672 191.074 205.322 190.904 207.478H198.094C198.094 205.448 197.121 203.672 194.88 203.672Z" fill="#666666"/>
</svg>
