<?xml version="1.0" encoding="UTF-8"?><svg id="_レイヤー_1" xmlns="http://www.w3.org/2000/svg" viewBox="0 0 16 16"><defs><style>.cls-1{fill:#fff;}.cls-2{fill:#d1a089;}</style></defs><rect class="cls-1" width="16" height="16"/><g><rect class="cls-2" x="5.98" width="1.02" height="1.02"/><rect class="cls-2" x="7" width="1.02" height="1.02"/><rect class="cls-2" x="5.98" y=".98" width="1.02" height="1.02"/><rect class="cls-2" x="5" y=".98" width="1.02" height="1.02"/><rect class="cls-2" x="5" y="1.98" width="1" height="1.02"/><rect class="cls-2" x="4" y="1.98" width="1" height="1.02"/><rect class="cls-2" x="4" y="3" width="1" height="1.02"/><rect class="cls-2" x="4" y="3.98" width="1" height="1.02"/><rect class="cls-2" x="3" y="3" width="1" height="1.02"/><rect class="cls-2" x="3" y="3.98" width="1" height="1.02"/><rect class="cls-2" x="2" y="3" width="1" height="1.02"/><rect class="cls-2" x="2" y="9.98" width="1" height="1.02"/><rect class="cls-2" x="2" y="11" width="1" height="1.02"/><rect class="cls-2" x="2" y="9.97" width="1" height="1.02"/><rect class="cls-2" x="2" y="10.98" width="1" height="1.02"/><rect class="cls-2" x="1" y="9.97" width="1" height="1.02"/><rect class="cls-2" x="1" y="10.98" width="1" height="1.02"/><rect class="cls-2" x="1" y="11.98" width="1" height="1.02"/><rect class="cls-2" x="2" y="11.98" width="1" height="1.02"/><rect class="cls-2" x="2" y="11.98" width="1" height="1.02"/><rect class="cls-2" x="2" y="12.98" width="1" height="1.02"/><rect class="cls-2" x="3" y="12.98" width="1" height="1.02"/><rect class="cls-2" x="3" y="14" width="1" height="1.02"/><rect class="cls-2" x="4" y="14.98" width="1" height="1.02"/><rect class="cls-2" x="4" y="14" width="1" height="1.02"/><rect class="cls-2" x="5" y="14.98" width="1" height="1.02"/><rect class="cls-2" x="5" y="14" width="1" height="1.02"/><rect class="cls-2" x="6" y="14.98" width="1" height="1.02"/><rect class="cls-2" x="6" y="14" width="1" height="1.02"/><rect class="cls-2" x="7" y="14" width="1" height="1.02"/><rect class="cls-2" x="2" y="4" width="1" height="1.02"/><rect class="cls-2" x="1" y="4" width="1" height="1.02"/><rect class="cls-2" x="1" y="9" width="1" height="1.02"/><rect class="cls-2" x="1" y="5" width="1" height="1.02"/><rect class="cls-2" y="5" width="1" height="1.02"/><rect class="cls-2" x="1" y="6" width="1" height="1.02"/><rect class="cls-2" x="1" y="6.98" width="1" height="1.02"/><rect class="cls-2" x="1" y="7.98" width="1" height="1.02"/><rect class="cls-2" x="2" y="8.98" width="1" height="1.02"/><rect class="cls-2" x="3" y="8.98" width="1" height="1.02"/><rect class="cls-2" y="6" width="1" height="1.02"/><rect class="cls-2" y="6.98" width="1" height="1.02"/><rect class="cls-2" y="8" width="1" height="1.02"/><rect class="cls-2" x="7" y=".98" width="1.02" height="1.02"/><rect class="cls-2" x="9" y="0" width="1.02" height="1.02" transform="translate(19.02 1.02) rotate(-180)"/><rect class="cls-2" x="7.98" y="0" width="1.02" height="1.02" transform="translate(16.98 1.02) rotate(-180)"/><rect class="cls-2" x="9" y=".98" width="1.02" height="1.02" transform="translate(19.02 2.98) rotate(-180)"/><rect class="cls-2" x="9.98" y=".98" width="1.02" height="1.02" transform="translate(20.98 2.98) rotate(-180)"/><rect class="cls-2" x="10" y="1.98" width="1" height="1.02" transform="translate(21 4.98) rotate(-180)"/><rect class="cls-2" x="11" y="1.98" width="1" height="1.02" transform="translate(23 4.98) rotate(-180)"/><rect class="cls-2" x="11" y="3" width="1" height="1.02" transform="translate(23 7.02) rotate(-180)"/><rect class="cls-2" x="11" y="4" width="1" height="1.02" transform="translate(23 9.02) rotate(-180)"/><rect class="cls-2" x="12" y="3" width="1" height="1.02" transform="translate(25 7.02) rotate(-180)"/><rect class="cls-2" x="12" y="4" width="1" height="1.02" transform="translate(25 9.02) rotate(-180)"/><rect class="cls-2" x="13" y="3" width="1" height="1.02" transform="translate(27 7.02) rotate(-180)"/><rect class="cls-2" x="13" y="9.98" width="1" height="1.02" transform="translate(27 20.98) rotate(-180)"/><rect class="cls-2" x="13" y="11" width="1" height="1.02" transform="translate(27 23.02) rotate(-180)"/><rect class="cls-2" x="13" y="9.97" width="1" height="1.02" transform="translate(27 20.95) rotate(-180)"/><rect class="cls-2" x="13" y="10.98" width="1" height="1.02" transform="translate(27 22.98) rotate(-180)"/><rect class="cls-2" x="14" y="9.97" width="1" height="1.02" transform="translate(29 20.95) rotate(-180)"/><rect class="cls-2" x="14" y="10.98" width="1" height="1.02" transform="translate(29 22.98) rotate(-180)"/><rect class="cls-2" x="14" y="11.98" width="1" height="1.02" transform="translate(29 24.98) rotate(-180)"/><rect class="cls-2" x="13" y="11.98" width="1" height="1.02" transform="translate(27 24.98) rotate(-180)"/><rect class="cls-2" x="13" y="12.98" width="1" height="1.02" transform="translate(27 26.98) rotate(-180)"/><rect class="cls-2" x="12" y="12.98" width="1" height="1.02" transform="translate(25 26.98) rotate(-180)"/><rect class="cls-2" x="12" y="14" width="1" height="1.02" transform="translate(25 29.02) rotate(-180)"/><rect class="cls-2" x="11" y="14.98" width="1" height="1.02" transform="translate(23 30.98) rotate(-180)"/><rect class="cls-2" x="11" y="14" width="1" height="1.02" transform="translate(23 29.02) rotate(-180)"/><rect class="cls-2" x="10" y="14.98" width="1" height="1.02" transform="translate(21 30.98) rotate(-180)"/><rect class="cls-2" x="10" y="14" width="1" height="1.02" transform="translate(21 29.02) rotate(-180)"/><rect class="cls-2" x="9" y="14.98" width="1" height="1.02" transform="translate(19 30.98) rotate(-180)"/><rect class="cls-2" x="9" y="14" width="1" height="1.02" transform="translate(19 29.02) rotate(-180)"/><rect class="cls-2" x="8" y="14" width="1" height="1.02" transform="translate(17 29.02) rotate(-180)"/><rect class="cls-2" x="7" y="13.98" width="1" height="1.02"/><rect class="cls-2" x="8" y="13.98" width="1" height="1.02" transform="translate(17 28.98) rotate(-180)"/><rect class="cls-2" x="7" y="13" width="1" height="1.02"/><rect class="cls-2" x="8" y="13" width="1" height="1.02" transform="translate(17 27.02) rotate(-180)"/><rect class="cls-2" x="13" y="4" width="1" height="1.02" transform="translate(27 9.02) rotate(-180)"/><rect class="cls-2" x="14" y="4" width="1" height="1.02" transform="translate(29 9.02) rotate(-180)"/><rect class="cls-2" x="14" y="9" width="1" height="1.02" transform="translate(29 19.02) rotate(-180)"/><rect class="cls-2" x="13" y="9" width="1" height="1.02" transform="translate(27 19.02) rotate(-180)"/><rect class="cls-2" x="12" y="9" width="1" height="1.02" transform="translate(25 19.02) rotate(-180)"/><rect class="cls-2" x="14" y="5" width="1" height="1.02" transform="translate(29 11.02) rotate(-180)"/><rect class="cls-2" x="15" y="5" width="1" height="1.02" transform="translate(31 11.02) rotate(-180)"/><rect class="cls-2" x="14" y="6" width="1" height="1.02" transform="translate(29 13.02) rotate(-180)"/><rect class="cls-2" x="14" y="6.98" width="1" height="1.02" transform="translate(29 14.98) rotate(-180)"/><rect class="cls-2" x="14" y="7.98" width="1" height="1.02" transform="translate(29 16.98) rotate(-180)"/><rect class="cls-2" x="15" y="6" width="1" height="1.02" transform="translate(31 13.02) rotate(-180)"/><rect class="cls-2" x="15" y="6.98" width="1" height="1.02" transform="translate(31 14.98) rotate(-180)"/><rect class="cls-2" x="15" y="8" width="1" height="1.02" transform="translate(31 17.02) rotate(-180)"/><rect class="cls-2" x="7" y="6.98" width="1" height="1.02" transform="translate(15 14.98) rotate(-180)"/><rect class="cls-2" x="7" y="7.98" width="1" height="1.02" transform="translate(15 16.98) rotate(-180)"/><rect class="cls-2" x="8" y="6.98" width="1" height="1.02" transform="translate(17 14.98) rotate(-180)"/><rect class="cls-2" x="8" y="8" width="1" height="1.02" transform="translate(17 17.02) rotate(-180)"/><rect class="cls-2" x="7.98" y=".98" width="1.02" height="1.02" transform="translate(16.98 2.98) rotate(-180)"/></g></svg>