<svg width="40" height="40" viewBox="0 0 40 40" fill="none" xmlns="http://www.w3.org/2000/svg">
<path d="M6.73 21.1299H33.27L20 34.3999L6.73 21.1299Z" fill="black"/>
<path d="M30.54 22.26L20 32.8L9.46 22.26H30.53M36 20H4L20 36L36 20Z" fill="black"/>
<path d="M12 17C13.6569 17 15 15.6569 15 14C15 12.3431 13.6569 11 12 11C10.3431 11 9 12.3431 9 14C9 15.6569 10.3431 17 12 17Z" fill="black"/>
<path d="M12 12C13.1 12 14 12.9 14 14C14 15.1 13.1 16 12 16C10.9 16 10 15.1 10 14C10 12.9 10.9 12 12 12ZM12 10C9.79 10 8 11.79 8 14C8 16.21 9.79 18 12 18C14.21 18 16 16.21 16 14C16 11.79 14.21 10 12 10Z" fill="black"/>
<path d="M28 17C29.6569 17 31 15.6569 31 14C31 12.3431 29.6569 11 28 11C26.3431 11 25 12.3431 25 14C25 15.6569 26.3431 17 28 17Z" fill="black"/>
<path d="M28 12C29.1 12 30 12.9 30 14C30 15.1 29.1 16 28 16C26.9 16 26 15.1 26 14C26 12.9 26.9 12 28 12ZM28 10C25.79 10 24 11.79 24 14C24 16.21 25.79 18 28 18C30.21 18 32 16.21 32 14C32 11.79 30.21 10 28 10Z" fill="black"/>
<path d="M20 11C21.6569 11 23 9.65685 23 8C23 6.34315 21.6569 5 20 5C18.3431 5 17 6.34315 17 8C17 9.65685 18.3431 11 20 11Z" fill="black"/>
<path d="M20 6C21.1 6 22 6.9 22 8C22 9.1 21.1 10 20 10C18.9 10 18 9.1 18 8C18 6.9 18.9 6 20 6ZM20 4C17.79 4 16 5.79 16 8C16 10.21 17.79 12 20 12C22.21 12 24 10.21 24 8C24 5.79 22.21 4 20 4Z" fill="black"/>
</svg>
