<svg width="40" height="40" viewBox="0 0 40 40" fill="none" xmlns="http://www.w3.org/2000/svg">
<path d="M24.98 35.45C23.45 35.45 21.93 34.96 20.7 34.06C20.53 33.93 20.32 33.87 20.11 33.87C19.9 33.87 19.7 33.93 19.52 34.06C18.29 34.95 16.77 35.45 15.24 35.45C13.71 35.45 12.23 34.97 10.99 34.07C8.44 32.22 7.38 28.95 8.36 25.96C8.49 25.55 8.35 25.1 8 24.84C5.45 22.99 4.39 19.73 5.36 16.73C6.33 13.73 9.11 11.72 12.26 11.72C12.69 11.72 13.08 11.44 13.21 11.03C14.18 8.03001 16.96 6.01001 20.11 6.01001C23.26 6.01001 26.04 8.03001 27.01 11.03C27.14 11.44 27.53 11.72 27.96 11.72C31.12 11.72 33.89 13.73 34.86 16.73C35.83 19.73 34.77 22.99 32.22 24.84C31.87 25.09 31.72 25.55 31.86 25.96C32.84 28.96 31.78 32.22 29.23 34.07C27.98 34.98 26.51 35.45 24.98 35.45Z" fill="black"/>
<path d="M20.11 7C22.83 7 25.22 8.74 26.06 11.33C26.33 12.15 27.1 12.71 27.96 12.71C30.68 12.71 33.07 14.45 33.91 17.03C34.75 19.62 33.84 22.43 31.63 24.02C30.93 24.53 30.63 25.43 30.9 26.26C31.74 28.85 30.83 31.66 28.63 33.26C27.56 34.04 26.29 34.45 24.96 34.45C23.63 34.45 22.33 34.03 21.27 33.25C20.92 33 20.51 32.87 20.09 32.87C19.67 32.87 19.26 33 18.91 33.25C17.85 34.02 16.54 34.45 15.22 34.45C13.9 34.45 12.63 34.04 11.55 33.26C9.35 31.66 8.44 28.85 9.28 26.26C9.55 25.44 9.25 24.53 8.55 24.02C6.35 22.42 5.43 19.61 6.27 17.03C7.11 14.45 9.5 12.71 12.22 12.71C13.09 12.71 13.85 12.15 14.12 11.33C14.96 8.74 17.35 7 20.07 7M20.11 5C16.44 5 13.33 7.4 12.26 10.71C8.78 10.71 5.54 12.92 4.41 16.41C3.28 19.9 4.59 23.6 7.41 25.64C6.33 28.95 7.44 32.72 10.41 34.87C11.87 35.93 13.57 36.45 15.25 36.45C16.93 36.45 18.69 35.91 20.12 34.87C21.55 35.91 23.26 36.45 24.99 36.45C26.72 36.45 28.37 35.94 29.83 34.87C32.8 32.71 33.9 28.95 32.83 25.64C35.65 23.59 36.97 19.9 35.83 16.41C34.7 12.92 31.46 10.71 27.98 10.71C26.91 7.4 23.8 5 20.13 5H20.11Z" fill="black"/>
</svg>
