<?xml version="1.0" encoding="UTF-8"?><svg id="_レイヤー_1" xmlns="http://www.w3.org/2000/svg" viewBox="0 0 464.34 90.1"><defs><style>.cls-1{fill:#979797;}</style></defs><path class="cls-1" d="m26,7.72c8.4,0,17.2,2.66,17.2,12.7,0,5.46-3.28,9.83-8.6,11.19,6.69,1.16,10.85,7.37,10.85,13.92,0,11.12-9.01,14.54-18.56,14.54H2.53v-3.55h2.25c3.55,0,4.1-1.43,4.1-4.5V15.77c0-3.21-.61-4.5-4.1-4.5h-2.25v-3.55h23.48Zm-9.01,21.84h7.78c5.46,0,10.1-2.66,10.1-8.67s-5.19-7.99-10.44-7.99h-7.44v16.65Zm0,25.32h7.98c6.21,0,11.88-2.12,11.88-9.28s-5.32-10.85-12.01-10.85h-7.85v20.13Z"/><path class="cls-1" d="m70.23,22.05c11.4,0,18.56,8.46,18.56,19.59s-7.17,19.52-18.56,19.52-18.56-8.46-18.56-19.52,7.17-19.59,18.56-19.59Zm.07,33.92c8.12,0,10.58-7.3,10.58-14.2s-2.53-14.54-10.72-14.54-10.58,7.37-10.58,14.26,2.46,14.47,10.71,14.47Z"/><path class="cls-1" d="m106,22.05v27.03c0,3.82,1.78,6.55,5.87,6.55,2.59,0,5.53-1.37,7.3-3.21,1.37-1.5,2.05-3.14,2.46-5.12v-16.65c0-1.57-.27-3.14-2.25-3.14-.75,0-1.43.14-2.19.27l-.27-3.55,12.15-2.18v31.67c0,2.05.27,3.28,2.66,3.28.27,0,.54-.07.89-.07v3.55l-10.99.68v-4.78c-3.14,3.28-7.71,4.78-12.15,4.78-4.09,0-7.92-1.3-9.83-5.19-.89-1.84-1.09-4.5-1.09-6.48v-18.84c0-1.57-.27-3.14-2.25-3.14-.75,0-1.43.14-2.18.27l-.27-3.55,12.15-2.18Z"/><path class="cls-1" d="m172.89,69.35c0,3.21.61,4.5,4.09,4.5h.82v3.55h-17.54v-3.55h1.09c3.55,0,4.1-1.5,4.1-4.5v-12.97c-2.87,3.34-7.03,4.78-11.33,4.78-11.06,0-15.56-9.08-15.56-18.91,0-10.65,5.39-20.2,17.13-20.2,4.3,0,7.64,1.3,10.79,4.23l6.42-4.23v47.3Zm-16.59-42.11c-8.05,0-9.9,7.58-9.9,14.2,0,6.21,1.77,14.2,9.42,14.2,4.64,0,8.19-2.39,9.62-6.76v-15.9c-1.64-3.48-5.32-5.73-9.15-5.73Z"/><path class="cls-1" d="m194.12,22.05v27.03c0,3.82,1.77,6.55,5.87,6.55,2.59,0,5.53-1.37,7.3-3.21,1.37-1.5,2.05-3.14,2.46-5.12v-16.65c0-1.57-.27-3.14-2.25-3.14-.75,0-1.43.14-2.18.27l-.27-3.55,12.15-2.18v31.67c0,2.05.27,3.28,2.66,3.28.27,0,.55-.07.89-.07v3.55l-10.99.68v-4.78c-3.14,3.28-7.71,4.78-12.15,4.78-4.1,0-7.92-1.3-9.83-5.19-.89-1.84-1.09-4.5-1.09-6.48v-18.84c0-1.57-.27-3.14-2.25-3.14-.75,0-1.43.14-2.19.27l-.27-3.55,12.15-2.18Z"/><path class="cls-1" d="m236.57,50.31c1.77,3.34,5.05,5.53,8.87,5.53,4.44,0,7.3-2.73,9.28-6.42l4.37,3c-3.69,5.67-8.33,8.74-15.22,8.74-11.06,0-17.06-8.39-17.06-18.84s6.28-20.27,17.41-20.27c5.25,0,10.37,2.8,12.76,7.64,1.84,3.62,2.46,7.44,2.46,11.53h-24.71c-.07,3.07.34,6.28,1.84,9.08Zm7.37-23.07c-5.19,0-8.67,3.75-9.08,8.74h16.45c0-4.64-2.25-8.74-7.37-8.74Z"/><path class="cls-1" d="m272.88,11.47h4.3v11.74h9.69v5.19h-9.69v23.55c0,1.91.82,3.28,2.87,3.28s3.21-1.37,4.3-2.94l3.48,4.03c-2.59,3.14-6.07,4.85-10.17,4.85-5.94,0-7.92-3.55-7.92-9.01v-23.75h-5.19v-4.03c6.01-.96,7.78-7.71,8.33-12.9Z"/><path class="cls-1" d="m325.99,26.89c3.21-3.28,7.98-4.85,12.56-4.85,4.16,0,7.92,1.37,9.9,5.32.96,1.84,1.09,4.3,1.09,6.35v18.29c0,3.14.68,4.5,4.1,4.5h.89v3.55h-16.93v-3.55h.61c3.41,0,3.96-1.43,3.96-4.5v-17.81c0-3.89-1.91-6.14-5.94-6.14-2.59,0-5.8,1.3-7.71,3.14-1.43,1.37-2.12,3-2.53,4.98v15.83c0,3.07.61,4.5,4.03,4.5h.54v3.55h-16.93v-3.55h.82c3.48,0,4.16-1.37,4.16-4.5v-21.29c0-1.64-.27-3.21-2.32-3.21-.75,0-1.57.14-2.12.27l-.27-3.55,12.08-2.12v4.78Z"/><path class="cls-1" d="m377.86,22.05c11.4,0,18.56,8.46,18.56,19.59s-7.17,19.52-18.56,19.52-18.57-8.46-18.57-19.52,7.17-19.59,18.57-19.59Zm.07,33.92c8.12,0,10.58-7.3,10.58-14.2s-2.53-14.54-10.71-14.54-10.58,7.37-10.58,14.26,2.46,14.47,10.72,14.47Z"/><path class="cls-1" d="m409.67,11.47h4.3v11.74h9.69v5.19h-9.69v23.55c0,1.91.82,3.28,2.87,3.28s3.21-1.37,4.3-2.94l3.48,4.03c-2.59,3.14-6.07,4.85-10.17,4.85-5.94,0-7.92-3.55-7.92-9.01v-23.75h-5.19v-4.03c6.01-.96,7.78-7.71,8.33-12.9Z"/><path class="cls-1" d="m438.4,50.31c1.78,3.34,5.05,5.53,8.87,5.53,4.44,0,7.3-2.73,9.28-6.42l4.37,3c-3.69,5.67-8.33,8.74-15.22,8.74-11.06,0-17.06-8.39-17.06-18.84s6.28-20.27,17.4-20.27c5.26,0,10.38,2.8,12.76,7.64,1.84,3.62,2.46,7.44,2.46,11.53h-24.71c-.07,3.07.34,6.28,1.84,9.08Zm7.37-23.07c-5.19,0-8.67,3.75-9.08,8.74h16.45c0-4.64-2.25-8.74-7.37-8.74Z"/></svg>