<?xml version="1.0" encoding="UTF-8"?><svg id="_レイヤー_1" xmlns="http://www.w3.org/2000/svg" viewBox="0 0 161.83 161.83"><defs><style>.cls-1{stroke-linecap:round;}.cls-1,.cls-2{fill:none;stroke:#979797;stroke-linejoin:round;stroke-width:4.2px;}</style></defs><g><path class="cls-2" d="m104.8,31c-1.54-4.75-5.95-7.76-10.69-7.76-1.46-4.51-5.69-7.77-10.68-7.77s-9.22,3.26-10.68,7.77c-4.74,0-9.15,3.01-10.69,7.76-1.54,4.75.25,9.78,4.09,12.56-1.47,4.51.04,9.63,4.08,12.56,4.04,2.94,9.38,2.78,13.21,0,3.83,2.79,9.17,2.94,13.21,0,4.04-2.94,5.54-8.06,4.08-12.56,3.83-2.78,5.63-7.81,4.09-12.56Z"/><path class="cls-2" d="m66.72,76.55c-1.54-4.75-5.95-7.76-10.69-7.76-1.46-4.51-5.69-7.77-10.68-7.77s-9.22,3.26-10.68,7.77c-4.74,0-9.15,3.01-10.69,7.76-1.54,4.75.25,9.78,4.09,12.56-1.47,4.51.04,9.63,4.08,12.56,4.04,2.94,9.38,2.78,13.21,0,3.83,2.79,9.17,2.94,13.21,0,4.04-2.94,5.54-8.06,4.08-12.56,3.83-2.78,5.63-7.81,4.09-12.56Z"/><path class="cls-2" d="m137.86,77.91c-1.54-4.75-5.95-7.76-10.69-7.76-1.46-4.51-5.69-7.77-10.68-7.77s-9.22,3.26-10.68,7.77c-4.74,0-9.15,3.01-10.69,7.76-1.54,4.75.25,9.78,4.09,12.56-1.47,4.51.04,9.63,4.08,12.56,4.04,2.94,9.38,2.78,13.21,0,3.83,2.79,9.17,2.94,13.21,0,4.04-2.94,5.54-8.06,4.08-12.56,3.83-2.78,5.63-7.81,4.09-12.56Z"/><path class="cls-1" d="m82.26,73.71c-1.81,4.08-3.09,9-2.58,14.42,1.22,13.05,7.49,15.92,10.24,28.46,1.39,6.35,1.1,16.13-8.24,29.77"/><path class="cls-1" d="m66.91,112.74c1.79,1.67,3.52,3.65,5,5.99,8,12.56,2.67,25.14,1.86,26.96"/><circle class="cls-1" cx="45.35" cy="82.42" r="1.37"/><circle class="cls-1" cx="83.42" cy="36.87" r="1.37"/><circle class="cls-1" cx="116.48" cy="83.79" r="1.37"/></g><path class="cls-2" d="m56.03,143.1c3.18.54,5.94-2.22,5.4-5.4-.79-4.67-2.25-10.67-5.99-14.41s-9.74-5.19-14.41-5.99c-3.18-.54-5.94,2.22-5.4,5.4.79,4.67,2.25,10.67,5.99,14.41s9.74,5.19,14.41,5.99Z"/><path class="cls-2" d="m126.22,122.71c.54-3.18-2.22-5.94-5.4-5.4-4.67.79-10.67,2.25-14.41,5.99-3.73,3.73-5.19,9.74-5.99,14.41-.54,3.18,2.22,5.94,5.4,5.4,4.67-.79,10.67-2.25,14.41-5.99s5.19-9.74,5.99-14.41Z"/></svg>