<svg width="32" height="32" viewBox="0 0 32 32" fill="none" xmlns="http://www.w3.org/2000/svg">
<path d="M24.432 17.808L16 26.24L7.56795 17.808H24.424M28.7999 16H3.19995L16 28.8L28.7999 16Z" fill="black"/>
<path d="M9.5999 9.6C10.4799 9.6 11.1999 10.32 11.1999 11.2C11.1999 12.08 10.4799 12.8 9.5999 12.8C8.7199 12.8 7.9999 12.08 7.9999 11.2C7.9999 10.32 8.7199 9.6 9.5999 9.6ZM9.5999 8C7.8319 8 6.3999 9.432 6.3999 11.2C6.3999 12.968 7.8319 14.4 9.5999 14.4C11.3679 14.4 12.7999 12.968 12.7999 11.2C12.7999 9.432 11.3679 8 9.5999 8Z" fill="black"/>
<path d="M22.4 9.6C23.28 9.6 24 10.32 24 11.2C24 12.08 23.28 12.8 22.4 12.8C21.52 12.8 20.8 12.08 20.8 11.2C20.8 10.32 21.52 9.6 22.4 9.6ZM22.4 8C20.632 8 19.2 9.432 19.2 11.2C19.2 12.968 20.632 14.4 22.4 14.4C24.168 14.4 25.6 12.968 25.6 11.2C25.6 9.432 24.168 8 22.4 8Z" fill="black"/>
<path d="M16 4.8002C16.88 4.8002 17.6 5.5202 17.6 6.4002C17.6 7.2802 16.88 8.0002 16 8.0002C15.12 8.0002 14.4 7.2802 14.4 6.4002C14.4 5.5202 15.12 4.8002 16 4.8002ZM16 3.2002C14.232 3.2002 12.8 4.6322 12.8 6.4002C12.8 8.1682 14.232 9.6002 16 9.6002C17.768 9.6002 19.2 8.1682 19.2 6.4002C19.2 4.6322 17.768 3.2002 16 3.2002Z" fill="black"/>
</svg>
