<svg width="32" height="32" viewBox="0 0 32 32" fill="none" xmlns="http://www.w3.org/2000/svg">
<path d="M16 5.01602C18.176 5.01602 20.088 6.40802 20.76 8.48002C20.976 9.13602 21.592 9.58401 22.28 9.58401C24.456 9.58401 26.368 10.976 27.04 13.04C27.712 15.112 26.984 17.36 25.216 18.632C24.656 19.04 24.416 19.76 24.632 20.424C25.304 22.496 24.576 24.744 22.816 26.024C21.96 26.648 20.944 26.976 19.88 26.976C18.816 26.976 17.776 26.64 16.928 26.016C16.648 25.816 16.32 25.712 15.984 25.712C15.648 25.712 15.32 25.816 15.04 26.016C14.192 26.632 13.144 26.976 12.088 26.976C11.032 26.976 10.016 26.648 9.15199 26.024C7.39199 24.744 6.66399 22.496 7.33599 20.424C7.55199 19.768 7.31199 19.04 6.75199 18.632C4.99199 17.352 4.25599 15.104 4.92799 13.04C5.59999 10.976 7.51199 9.58401 9.68799 9.58401C10.384 9.58401 10.992 9.13602 11.208 8.48002C11.88 6.40802 13.792 5.01602 15.968 5.01602M16 3.41602C13.064 3.41602 10.576 5.33602 9.71999 7.98401C6.93599 7.98401 4.34399 9.75202 3.43999 12.544C2.53599 15.336 3.58399 18.296 5.83999 19.928C4.97599 22.576 5.86399 25.592 8.23999 27.312C9.40799 28.16 10.768 28.576 12.112 28.576C13.456 28.576 14.864 28.144 16.008 27.312C17.152 28.144 18.52 28.576 19.904 28.576C21.288 28.576 22.608 28.168 23.776 27.312C26.152 25.584 27.032 22.576 26.176 19.928C28.432 18.288 29.488 15.336 28.576 12.544C27.672 9.75202 25.08 7.98401 22.296 7.98401C21.44 5.33602 18.952 3.41602 16.016 3.41602H16Z" fill="black"/>
</svg>
